ffmpeg started on 2025-06-04 at 20:11:06
Report written to "D:\Convert\FFMetrics\reports\psnr_report-6.txt"
Log level: 32
Command line:
ffmpeg -hide_banner -nostdin -i "G:\\\xc0\xed\xe8\xec\xe5\\\xce\xed\xe3\xee\xe8\xed\xe3\xe8\\!_36_\xce\xf1\xe5\xed\xfc_2024\\DreamCast\\\xc3\xf0\xe8\xe1\xed\xee\xe9 \xf9\xe5\xed\xee\xea\\[DC] Kinoko Inu - 06_Telegram_HEVC.mkv" -i "G:\\\xc0\xed\xe8\xec\xe5\\\xce\xed\xe3\xee\xe8\xed\xe3\xe8\\!_36_\xce\xf1\xe5\xed\xfc_2024\\DreamCast\\\xc3\xf0\xe8\xe1\xed\xee\xe9 \xf9\xe5\xed\xee\xea\\[DC] Kinoko Inu - 06_Telegram.mp4" -lavfi "[0:v]settb=AVTB,setpts=PTS-STARTPTS,format=pix_fmts=yuv420p10,fps=24000/1001,scale=1920:1080:flags=bicubic[main];[1:v]settb=AVTB,setpts=PTS-STARTPTS,format=pix_fmts=yuv420p,fps=24000/1001,scale=1920:1080:flags=bicubic[ref];[main][ref]psnr=eof_action=endall:stats_file='D\\:/Convert/FFMetrics/logs/psnr_logfile-6.txt'" -f null -
Input #0, matroska,webm, from 'G:\Аниме\Онгоинги\!_36_Осень_2024\DreamCast\Грибной щенок\[DC] Kinoko Inu - 06_Telegram_HEVC.mkv':
  Metadata:
    COMPATIBLE_BRANDS: isomiso2avc1mp41
    MAJOR_BRAND     : isom
    MINOR_VERSION   : 512
    ENCODER         : Lavf61.7.100
  Duration: 00:23:51.68, start: -0.021000, bitrate: 663 kb/s
  Stream #0:0: Video: hevc (Main 10), yuv420p10le(tv, bt709, progressive), 1920x1080 [SAR 1:1 DAR 16:9], 23.98 fps, 23.98 tbr, 1k tbn (default)
      Metadata:
        HANDLER_NAME    : VideoHandler
        VENDOR_ID       : [0][0][0][0]
        ENCODER         : Lavc61.19.100 libx265
        BPS             : 465608
        DURATION        : 00:23:51.554708333
        NUMBER_OF_FRAMES: 34323
        NUMBER_OF_BYTES : 83318051
        _STATISTICS_WRITING_APP: mkvpropedit v66.0.0 ('Josie') 64-bit
        _STATISTICS_WRITING_DATE_UTC: 2025-05-30 10:23:51
        _STATISTICS_TAGS: BPS DURATION NUMBER_OF_FRAMES NUMBER_OF_BYTES
  Stream #0:1: Audio: aac (LC), 48000 Hz, stereo, fltp (default)
      Metadata:
        HANDLER_NAME    : SoundHandler
        VENDOR_ID       : [0][0][0][0]
        ENCODER         : Lavc61.19.100 aac
        BPS             : 193637
        DURATION        : 00:23:51.680000000
        NUMBER_OF_FRAMES: 67111
        NUMBER_OF_BYTES : 34653392
        _STATISTICS_WRITING_APP: mkvpropedit v66.0.0 ('Josie') 64-bit
        _STATISTICS_WRITING_DATE_UTC: 2025-05-30 10:23:51
        _STATISTICS_TAGS: BPS DURATION NUMBER_OF_FRAMES NUMBER_OF_BYTES
Input #1, mov,mp4,m4a,3gp,3g2,mj2, from 'G:\Аниме\Онгоинги\!_36_Осень_2024\DreamCast\Грибной щенок\[DC] Kinoko Inu - 06_Telegram.mp4':
  Metadata:
    major_brand     : isom
    minor_version   : 512
    compatible_brands: isomiso2avc1mp41
    encoder         : Lavf61.1.100
  Duration: 00:23:51.62, start: 0.000000, bitrate: 3672 kb/s
  Stream #1:0[0x1](und): Video: h264 (High) (avc1 / 0x31637661), yuv420p(tv, bt709, progressive), 1920x1080 [SAR 1:1 DAR 16:9], 3524 kb/s, 23.98 fps, 23.98 tbr, 24k tbn (default)
      Metadata:
        handler_name    : VideoHandler
        vendor_id       : [0][0][0][0]
        encoder         : Lavc61.3.100 h264_qsv
  Stream #1:1[0x2](und): Audio: aac (HE-AACv2) (mp4a / 0x6134706D), 48000 Hz, stereo, fltp, 144 kb/s (default)
      Metadata:
        handler_name    : SoundHandler
        vendor_id       : [0][0][0][0]
Stream mapping:
  Stream #0:0 (hevc) -> settb:default
  Stream #1:0 (h264) -> settb:default
  psnr:default -> Stream #0:0 (wrapped_avframe)
  Stream #0:1 -> #0:1 (aac (native) -> pcm_s16le (native))
Output #0, null, to 'pipe:':
  Metadata:
    COMPATIBLE_BRANDS: isomiso2avc1mp41
    MAJOR_BRAND     : isom
    MINOR_VERSION   : 512
    encoder         : Lavf61.7.100
  Stream #0:0: Video: wrapped_avframe, yuv420p10le(tv, bt709, progressive), 1920x1080 [SAR 1:1 DAR 16:9], q=2-31, 200 kb/s, 23.98 fps, 23.98 tbn
      Metadata:
        encoder         : Lavc61.19.100 wrapped_avframe
  Stream #0:1: Audio: pcm_s16le, 48000 Hz, stereo, s16, 1536 kb/s (default)
      Metadata:
        HANDLER_NAME    : SoundHandler
        VENDOR_ID       : [0][0][0][0]
        _STATISTICS_TAGS: BPS DURATION NUMBER_OF_FRAMES NUMBER_OF_BYTES
        BPS             : 193637
        DURATION        : 00:23:51.680000000
        NUMBER_OF_FRAMES: 67111
        NUMBER_OF_BYTES : 34653392
        _STATISTICS_WRITING_APP: mkvpropedit v66.0.0 ('Josie') 64-bit
        _STATISTICS_WRITING_DATE_UTC: 2025-05-30 10:23:51
        encoder         : Lavc61.19.100 pcm_s16le
frame=  152 fps=0.0 q=-0.0 size=N/A time=00:00:06.33 bitrate=N/A speed=12.4x    frame=  422 fps=408 q=-0.0 size=N/A time=00:00:17.60 bitrate=N/A speed=  17x    frame=  674 fps=437 q=-0.0 size=N/A time=00:00:28.11 bitrate=N/A speed=18.2x    frame=  933 fps=451 q=-0.0 size=N/A time=00:00:38.91 bitrate=N/A speed=18.8x    frame= 1193 fps=464 q=-0.0 size=N/A time=00:00:49.75 bitrate=N/A speed=19.3x    frame= 1465 fps=473 q=-0.0 size=N/A time=00:01:01.10 bitrate=N/A speed=19.7x    frame= 1733 fps=481 q=-0.0 size=N/A time=00:01:12.28 bitrate=N/A speed=20.1x    frame= 2003 fps=486 q=-0.0 size=N/A time=00:01:23.54 bitrate=N/A speed=20.3x    frame= 2276 fps=490 q=-0.0 size=N/A time=00:01:34.92 bitrate=N/A speed=20.4x    frame= 2540 fps=493 q=-0.0 size=N/A time=00:01:45.93 bitrate=N/A speed=20.6x    frame= 2773 fps=490 q=-0.0 size=N/A time=00:01:55.65 bitrate=N/A speed=20.4x    frame= 3050 fps=493 q=-0.0 size=N/A time=00:02:07.21 bitrate=N/A speed=20.6x    frame= 3324 fps=495 q=-0.0 size=N/A time=00:02:18.63 bitrate=N/A speed=20.7x    frame= 3611 fps=501 q=-0.0 size=N/A time=00:02:30.60 bitrate=N/A speed=20.9x    frame= 3892 fps=503 q=-0.0 size=N/A time=00:02:42.32 bitrate=N/A speed=  21x    frame= 4160 fps=504 q=-0.0 size=N/A time=00:02:53.50 bitrate=N/A speed=  21x    frame= 4376 fps=499 q=-0.0 size=N/A time=00:03:02.51 bitrate=N/A speed=20.8x    frame= 4602 fps=496 q=-0.0 size=N/A time=00:03:11.94 bitrate=N/A speed=20.7x    frame= 4784 fps=489 q=-0.0 size=N/A time=00:03:19.53 bitrate=N/A speed=20.4x    frame= 5027 fps=488 q=-0.0 size=N/A time=00:03:29.66 bitrate=N/A speed=20.3x    frame= 5238 fps=484 q=-0.0 size=N/A time=00:03:38.46 bitrate=N/A speed=20.2x    frame= 5465 fps=482 q=-0.0 size=N/A time=00:03:47.93 bitrate=N/A speed=20.1x    frame= 5698 fps=481 q=-0.0 size=N/A time=00:03:57.65 bitrate=N/A speed=20.1x    frame= 5928 fps=479 q=-0.0 size=N/A time=00:04:07.24 bitrate=N/A speed=  20x    frame= 6185 fps=480 q=-0.0 size=N/A time=00:04:17.96 bitrate=N/A speed=  20x    frame= 6413 fps=478 q=-0.0 size=N/A time=00:04:27.47 bitrate=N/A speed=  20x    frame= 6682 fps=480 q=-0.0 size=N/A time=00:04:38.69 bitrate=N/A speed=  20x    frame= 6950 fps=482 q=-0.0 size=N/A time=00:04:49.87 bitrate=N/A speed=20.1x    frame= 7247 fps=485 q=-0.0 size=N/A time=00:05:02.26 bitrate=N/A speed=20.2x    frame= 7526 fps=487 q=-0.0 size=N/A time=00:05:13.89 bitrate=N/A speed=20.3x    frame= 7802 fps=488 q=-0.0 size=N/A time=00:05:25.40 bitrate=N/A speed=20.4x    frame= 8067 fps=489 q=-0.0 size=N/A time=00:05:36.46 bitrate=N/A speed=20.4x    frame= 8287 fps=487 q=-0.0 size=N/A time=00:05:45.63 bitrate=N/A speed=20.3x    frame= 8562 fps=488 q=-0.0 size=N/A time=00:05:57.10 bitrate=N/A speed=20.4x    frame= 8787 fps=487 q=-0.0 size=N/A time=00:06:06.49 bitrate=N/A speed=20.3x    frame= 9026 fps=486 q=-0.0 size=N/A time=00:06:16.45 bitrate=N/A speed=20.3x    frame= 9261 fps=485 q=-0.0 size=N/A time=00:06:26.26 bitrate=N/A speed=20.2x    frame= 9511 fps=486 q=-0.0 size=N/A time=00:06:36.68 bitrate=N/A speed=20.3x    frame= 9794 fps=487 q=-0.0 size=N/A time=00:06:48.49 bitrate=N/A speed=20.3x    frame=10080 fps=489 q=-0.0 size=N/A time=00:07:00.42 bitrate=N/A speed=20.4x    frame=10349 fps=490 q=-0.0 size=N/A time=00:07:11.63 bitrate=N/A speed=20.4x    frame=10605 fps=490 q=-0.0 size=N/A time=00:07:22.31 bitrate=N/A speed=20.4x    frame=10889 fps=491 q=-0.0 size=N/A time=00:07:34.16 bitrate=N/A speed=20.5x    frame=11158 fps=492 q=-0.0 size=N/A time=00:07:45.38 bitrate=N/A speed=20.5x    frame=11436 fps=493 q=-0.0 size=N/A time=00:07:56.97 bitrate=N/A speed=20.6x    frame=11711 fps=494 q=-0.0 size=N/A time=00:08:08.44 bitrate=N/A speed=20.6x    frame=11992 fps=495 q=-0.0 size=N/A time=00:08:20.16 bitrate=N/A speed=20.6x    frame=12276 fps=496 q=-0.0 size=N/A time=00:08:32.01 bitrate=N/A speed=20.7x    frame=12532 fps=496 q=-0.0 size=N/A time=00:08:42.68 bitrate=N/A speed=20.7x    frame=12798 fps=496 q=-0.0 size=N/A time=00:08:53.78 bitrate=N/A speed=20.7x    frame=13048 fps=496 q=-0.0 size=N/A time=00:09:04.21 bitrate=N/A speed=20.7x    frame=13291 fps=496 q=-0.0 size=N/A time=00:09:14.34 bitrate=N/A speed=20.7x    frame=13566 fps=496 q=-0.0 size=N/A time=00:09:25.81 bitrate=N/A speed=20.7x    frame=13833 fps=497 q=-0.0 size=N/A time=00:09:36.95 bitrate=N/A speed=20.7x    frame=14117 fps=498 q=-0.0 size=N/A time=00:09:48.79 bitrate=N/A speed=20.8x    frame=14396 fps=498 q=-0.0 size=N/A time=00:10:00.43 bitrate=N/A speed=20.8x    frame=14667 fps=499 q=-0.0 size=N/A time=00:10:11.73 bitrate=N/A speed=20.8x    frame=14948 fps=500 q=-0.0 size=N/A time=00:10:23.45 bitrate=N/A speed=20.8x    frame=15218 fps=500 q=-0.0 size=N/A time=00:10:34.71 bitrate=N/A speed=20.9x    frame=15484 fps=500 q=-0.0 size=N/A time=00:10:45.81 bitrate=N/A speed=20.9x    frame=15737 fps=500 q=-0.0 size=N/A time=00:10:56.36 bitrate=N/A speed=20.9x    frame=16000 fps=500 q=-0.0 size=N/A time=00:11:07.33 bitrate=N/A speed=20.9x    frame=16260 fps=501 q=-0.0 size=N/A time=00:11:18.17 bitrate=N/A speed=20.9x    frame=16503 fps=500 q=-0.0 size=N/A time=00:11:28.31 bitrate=N/A speed=20.9x    frame=16759 fps=500 q=-0.0 size=N/A time=00:11:38.98 bitrate=N/A speed=20.9x    frame=17028 fps=500 q=-0.0 size=N/A time=00:11:50.20 bitrate=N/A speed=20.9x    frame=17274 fps=500 q=-0.0 size=N/A time=00:12:00.46 bitrate=N/A speed=20.9x    frame=17538 fps=500 q=-0.0 size=N/A time=00:12:11.48 bitrate=N/A speed=20.9x    frame=17803 fps=500 q=-0.0 size=N/A time=00:12:22.53 bitrate=N/A speed=20.9x    frame=18083 fps=501 q=-0.0 size=N/A time=00:12:34.21 bitrate=N/A speed=20.9x    frame=18323 fps=501 q=-0.0 size=N/A time=00:12:44.22 bitrate=N/A speed=20.9x    frame=18573 fps=500 q=-0.0 size=N/A time=00:12:54.69 bitrate=N/A speed=20.9x    frame=18847 fps=501 q=-0.0 size=N/A time=00:13:06.07 bitrate=N/A speed=20.9x    frame=19127 fps=501 q=-0.0 size=N/A time=00:13:17.75 bitrate=N/A speed=20.9x    frame=19409 fps=502 q=-0.0 size=N/A time=00:13:29.51 bitrate=N/A speed=20.9x    frame=19674 fps=502 q=-0.0 size=N/A time=00:13:40.56 bitrate=N/A speed=20.9x    frame=19940 fps=502 q=-0.0 size=N/A time=00:13:51.66 bitrate=N/A speed=20.9x    frame=20198 fps=502 q=-0.0 size=N/A time=00:14:02.42 bitrate=N/A speed=20.9x    frame=20473 fps=503 q=-0.0 size=N/A time=00:14:13.89 bitrate=N/A speed=  21x    frame=20746 fps=503 q=-0.0 size=N/A time=00:14:25.28 bitrate=N/A speed=  21x    frame=21019 fps=503 q=-0.0 size=N/A time=00:14:36.66 bitrate=N/A speed=  21x    frame=21271 fps=503 q=-0.0 size=N/A time=00:14:47.17 bitrate=N/A speed=  21x    frame=21551 fps=504 q=-0.0 size=N/A time=00:14:58.85 bitrate=N/A speed=  21x    frame=21826 fps=504 q=-0.0 size=N/A time=00:15:10.32 bitrate=N/A speed=  21x    frame=22045 fps=503 q=-0.0 size=N/A time=00:15:19.46 bitrate=N/A speed=  21x    frame=22286 fps=503 q=-0.0 size=N/A time=00:15:29.51 bitrate=N/A speed=  21x    frame=22533 fps=502 q=-0.0 size=N/A time=00:15:39.81 bitrate=N/A speed=  21x    frame=22817 fps=503 q=-0.0 size=N/A time=00:15:51.65 bitrate=N/A speed=  21x    frame=23051 fps=502 q=-0.0 size=N/A time=00:16:01.41 bitrate=N/A speed=20.9x    frame=23314 fps=502 q=-0.0 size=N/A time=00:16:12.38 bitrate=N/A speed=  21x    frame=23548 fps=502 q=-0.0 size=N/A time=00:16:22.14 bitrate=N/A speed=20.9x    frame=23789 fps=501 q=-0.0 size=N/A time=00:16:32.19 bitrate=N/A speed=20.9x    frame=24037 fps=501 q=-0.0 size=N/A time=00:16:42.54 bitrate=N/A speed=20.9x    frame=24292 fps=501 q=-0.0 size=N/A time=00:16:53.17 bitrate=N/A speed=20.9x    frame=24544 fps=501 q=-0.0 size=N/A time=00:17:03.68 bitrate=N/A speed=20.9x    frame=24802 fps=501 q=-0.0 size=N/A time=00:17:14.45 bitrate=N/A speed=20.9x    frame=25066 fps=501 q=-0.0 size=N/A time=00:17:25.46 bitrate=N/A speed=20.9x    frame=25319 fps=501 q=-0.0 size=N/A time=00:17:36.01 bitrate=N/A speed=20.9x    frame=25546 fps=500 q=-0.0 size=N/A time=00:17:45.48 bitrate=N/A speed=20.9x    frame=25799 fps=500 q=-0.0 size=N/A time=00:17:56.03 bitrate=N/A speed=20.9x    frame=26073 fps=501 q=-0.0 size=N/A time=00:18:07.46 bitrate=N/A speed=20.9x    frame=26326 fps=501 q=-0.0 size=N/A time=00:18:18.01 bitrate=N/A speed=20.9x    frame=26602 fps=501 q=-0.0 size=N/A time=00:18:29.52 bitrate=N/A speed=20.9x    frame=26868 fps=501 q=-0.0 size=N/A time=00:18:40.61 bitrate=N/A speed=20.9x    frame=27119 fps=501 q=-0.0 size=N/A time=00:18:51.08 bitrate=N/A speed=20.9x    frame=27393 fps=501 q=-0.0 size=N/A time=00:19:02.51 bitrate=N/A speed=20.9x    frame=27645 fps=501 q=-0.0 size=N/A time=00:19:13.02 bitrate=N/A speed=20.9x    frame=27914 fps=501 q=-0.0 size=N/A time=00:19:24.24 bitrate=N/A speed=20.9x    frame=28176 fps=501 q=-0.0 size=N/A time=00:19:35.17 bitrate=N/A speed=20.9x    frame=28457 fps=502 q=-0.0 size=N/A time=00:19:46.89 bitrate=N/A speed=20.9x    frame=28648 fps=501 q=-0.0 size=N/A time=00:19:54.86 bitrate=N/A speed=20.9x    frame=28884 fps=500 q=-0.0 size=N/A time=00:20:04.70 bitrate=N/A speed=20.9x    frame=29117 fps=500 q=-0.0 size=N/A time=00:20:14.42 bitrate=N/A speed=20.8x    frame=29353 fps=499 q=-0.0 size=N/A time=00:20:24.26 bitrate=N/A speed=20.8x    frame=29628 fps=500 q=-0.0 size=N/A time=00:20:35.73 bitrate=N/A speed=20.8x    frame=29895 fps=500 q=-0.0 size=N/A time=00:20:46.87 bitrate=N/A speed=20.8x    frame=30165 fps=500 q=-0.0 size=N/A time=00:20:58.13 bitrate=N/A speed=20.9x    frame=30421 fps=500 q=-0.0 size=N/A time=00:21:08.80 bitrate=N/A speed=20.9x    frame=30676 fps=500 q=-0.0 size=N/A time=00:21:19.44 bitrate=N/A speed=20.9x    frame=30935 fps=500 q=-0.0 size=N/A time=00:21:30.28 bitrate=N/A speed=20.9x    frame=31223 fps=500 q=-0.0 size=N/A time=00:21:42.25 bitrate=N/A speed=20.9x    frame=31485 fps=501 q=-0.0 size=N/A time=00:21:53.18 bitrate=N/A speed=20.9x    frame=31738 fps=500 q=-0.0 size=N/A time=00:22:03.73 bitrate=N/A speed=20.9x    frame=31994 fps=500 q=-0.0 size=N/A time=00:22:14.41 bitrate=N/A speed=20.9x    frame=32239 fps=500 q=-0.0 size=N/A time=00:22:24.63 bitrate=N/A speed=20.9x    frame=32502 fps=500 q=-0.0 size=N/A time=00:22:35.60 bitrate=N/A speed=20.9x    frame=32733 fps=500 q=-0.0 size=N/A time=00:22:45.23 bitrate=N/A speed=20.8x    frame=32954 fps=499 q=-0.0 size=N/A time=00:22:54.45 bitrate=N/A speed=20.8x    frame=33194 fps=499 q=-0.0 size=N/A time=00:23:04.46 bitrate=N/A speed=20.8x    frame=33397 fps=498 q=-0.0 size=N/A time=00:23:12.93 bitrate=N/A speed=20.8x    frame=33641 fps=498 q=-0.0 size=N/A time=00:23:23.11 bitrate=N/A speed=20.8x    frame=33886 fps=498 q=-0.0 size=N/A time=00:23:33.32 bitrate=N/A speed=20.8x    frame=34145 fps=498 q=-0.0 size=N/A time=00:23:44.13 bitrate=N/A speed=20.8x    [Parsed_psnr_10 @ 0000021f88a3a340] PSNR y:49.501536 u:51.183693 v:51.458660 average:50.027130 min:40.739258 max:inf
[out#0/null @ 0000021f880cffc0] video:14748KiB audio:268444KiB subtitle:0KiB other streams:0KiB global headers:0KiB muxing overhead: unknown
frame=34323 fps=498 q=-0.0 Lsize=N/A time=00:23:51.55 bitrate=N/A speed=20.8x    
